{
  "accessors": [
    {
      "bufferView": 2,
      "componentType": 5126,
      "count": 48,
      "max": [
        2123.326416015625,
        447.5126953125,
        175.23464965820313
      ],
      "min": [
        2060.974365234375,
        373.5470886230469,
        2.378235101699829
      ],
      "type": "VEC3"
    },
    {
      "bufferView": 2,
      "byteOffset": 576,
      "componentType": 5126,
      "count": 48,
      "max": [
        0.8962857723236084,
        0.8962857723236084,
        1.0
      ],
      "min": [
        -0.8962857723236084,
        -0.8962857723236084,
        -1.0
      ],
      "type": "VEC3"
    },
    {
      "bufferView": 1,
      "componentType": 5126,
      "count": 48,
      "max": [
        0.875,
        1.0
      ],
      "min": [
        0.125,
        0.0
      ],
      "type": "VEC2"
    },
    {
      "bufferView": 0,
      "componentType": 5125,
      "count": 72,
      "type": "SCALAR"
    },
    {
      "bufferView": 2,
      "byteOffset": 1152,
      "componentType": 5126,
      "count": 1112,
      "max": [
        -70.19466400146484,
        763.6687622070313,
        478.2369689941406
      ],
      "min": [
        -456.81927490234375,
        608.0657958984375,
        362.2698059082031
      ],
      "type": "VEC3"
    },
    {
      "bufferView": 2,
      "byteOffset": 14496,
      "componentType": 5126,
      "count": 1112,
      "max": [
        0.9396930932998657,
        0.9396939277648926,
        0.9999721646308899
      ],
      "min": [
        -0.9396931529045105,
        -0.939693808555603,
        -1.0
      ],
      "type": "VEC3"
    },
    {
      "bufferView": 1,
      "byteOffset": 384,
      "componentType": 5126,
      "count": 1112,
      "max": [
        1.0,
        0.9652169942855835
      ],
      "min": [
        0.0,
        0.0
      ],
      "type": "VEC2"
    },
    {
      "bufferView": 0,
      "byteOffset": 288,
      "componentType": 5125,
      "count": 2400,
      "type": "SCALAR"
    },
    {
      "bufferView": 2,
      "byteOffset": 27840,
      "componentType": 5126,
      "count": 9979,
      "max": [
        3152.5576171875,
        4531.8447265625,
        3165.56982421875
      ],
      "min": [
        -2172.51416015625,
        -1982.94287109375,
        -397.7088623046875
      ],
      "type": "VEC3"
    },
    {
      "bufferView": 2,
      "byteOffset": 147588,
      "componentType": 5126,
      "count": 9979,
      "max": [
        1.0,
        1.0,
        1.0
      ],
      "min": [
        -1.0,
        -1.0,
        -1.0
      ],
      "type": "VEC3"
    },
    {
      "bufferView": 1,
      "byteOffset": 9280,
      "componentType": 5126,
      "count": 9979,
      "max": [
        1.0,
        1.0
      ],
      "min": [
        0.0,
        0.0
      ],
      "type": "VEC2"
    },
    {
      "bufferView": 0,
      "byteOffset": 9888,
      "componentType": 5125,
      "count": 28938,
      "type": "SCALAR"
    },
    {
      "bufferView": 2,
      "byteOffset": 267336,
      "componentType": 5126,
      "count": 9781,
      "max": [
        2071.260986328125,
        2423.23486328125,
        1388.9810791015625
      ],
      "min": [
        -1395.4195556640625,
        -1900.2972412109375,
        -0.7774099707603455
      ],
      "type": "VEC3"
    },
    {
      "bufferView": 2,
      "byteOffset": 384708,
      "componentType": 5126,
      "count": 9781,
      "max": [
        1.0,
        1.0,
        1.0
      ],
      "min": [
        -1.0,
        -1.0,
        -1.0
      ],
      "type": "VEC3"
    },
    {
      "bufferView": 1,
      "byteOffset": 89112,
      "componentType": 5126,
      "count": 9781,
      "max": [
        1.0,
        1.0
      ],
      "min": [
        0.0,
        0.0
      ],
      "type": "VEC2"
    },
    {
      "bufferView": 0,
      "byteOffset": 125640,
      "componentType": 5125,
      "count": 40410,
      "type": "SCALAR"
    },
    {
      "bufferView": 2,
      "byteOffset": 502080,
      "componentType": 5126,
      "count": 9991,
      "max": [
        444.4645080566406,
        2369.2705078125,
        1377.6494140625
      ],
      "min": [
        -1351.4981689453125,
        508.5223083496094,
        -0.7774099707603455
      ],
      "type": "VEC3"
    },
    {
      "bufferView": 2,
      "byteOffset": 621972,
      "componentType": 5126,
      "count": 9991,
      "max": [
        0.9966563582420349,
        0.9981903433799744,
        1.0
      ],
      "min": [
        -0.9964021444320679,
        -0.9981903433799744,
        -0.9996527433395386
      ],
      "type": "VEC3"
    },
    {
      "bufferView": 1,
      "byteOffset": 167360,
      "componentType": 5126,
      "count": 9991,
      "max": [
        1.0,
        1.0
      ],
      "min": [
        0.0,
        0.0
      ],
      "type": "VEC2"
    },
    {
      "bufferView": 0,
      "byteOffset": 287280,
      "componentType": 5125,
      "count": 45792,
      "type": "SCALAR"
    },
    {
      "bufferView": 2,
      "byteOffset": 741864,
      "componentType": 5126,
      "count": 9962,
      "max": [
        3258.243408203125,
        4531.8447265625,
        3165.56982421875
      ],
      "min": [
        -1878.669921875,
        -2418.35400390625,
        -326.80523681640625
      ],
      "type": "VEC3"
    },
    {
      "bufferView": 2,
      "byteOffset": 861408,
      "componentType": 5126,
      "count": 9962,
      "max": [
        1.0,
        1.0,
        1.0
      ],
      "min": [
        -1.0,
        -1.0,
        -1.0
      ],
      "type": "VEC3"
    },
    {
      "bufferView": 1,
      "byteOffset": 247288,
      "componentType": 5126,
      "count": 9962,
      "max": [
        1.0,
        1.0
      ],
      "min": [
        0.0,
        0.0
      ],
      "type": "VEC2"
    },
    {
      "bufferView": 0,
      "byteOffset": 470448,
      "componentType": 5125,
      "count": 25245,
      "type": "SCALAR"
    },
    {
      "bufferView": 2,
      "byteOffset": 980952,
      "componentType": 5126,
      "count": 9484,
      "max": [
        5811.52783203125,
        4865.15234375,
        5846.763671875
      ],
      "min": [
        -1782.8587646484375,
        110.3757095336914,
        -48.173492431640625
      ],
      "type": "VEC3"
    },
    {
      "bufferView": 2,
      "byteOffset": 1094760,
      "componentType": 5126,
      "count": 9484,
      "max": [
        1.0,
        1.0,
        1.0
      ],
      "min": [
        -1.0,
        -1.0,
        -1.0
      ],
      "type": "VEC3"
    },
    {
      "bufferView": 1,
      "byteOffset": 326984,
      "componentType": 5126,
      "count": 9484,
      "max": [
        1.0,
        1.0
      ],
      "min": [
        0.0,
        0.0
      ],
      "type": "VEC2"
    },
    {
      "bufferView": 0,
      "byteOffset": 571428,
      "componentType": 5125,
      "count": 22932,
      "type": "SCALAR"
    },
    {
      "bufferView": 2,
      "byteOffset": 1208568,
      "componentType": 5126,
      "count": 9999,
      "max": [
        5756.02197265625,
        5641.0498046875,
        5846.763671875
      ],
      "min": [
        -2172.51416015625,
        -1868.5772705078125,
        -397.7088623046875
      ],
      "type": "VEC3"
    },
    {
      "bufferView": 2,
      "byteOffset": 1328556,
      "componentType": 5126,
      "count": 9999,
      "max": [
        1.0,
        1.0,
        1.0
      ],
      "min": [
        -1.0,
        -1.0,
        -1.0
      ],
      "type": "VEC3"
    },
    {
      "bufferView": 1,
      "byteOffset": 402856,
      "componentType": 5126,
      "count": 9999,
      "max": [
        1.0,
        1.0
      ],
      "min": [
        0.0,
        0.0
      ],
      "type": "VEC2"
    },
    {
      "bufferView": 0,
      "byteOffset": 663156,
      "componentType": 5125,
      "count": 22080,
      "type": "SCALAR"
    },
    {
      "bufferView": 2,
      "byteOffset": 1448544,
      "componentType": 5126,
      "count": 2866,
      "max": [
        4542.64892578125,
        5353.3017578125,
        3053.81689453125
      ],
      "min": [
        -1364.0574951171875,
        200.02772521972656,
        -118.83464813232422
      ],
      "type": "VEC3"
    },
    {
      "bufferView": 2,
      "byteOffset": 1482936,
      "componentType": 5126,
      "count": 2866,
      "max": [
        0.9948608875274658,
        1.0,
        0.9984285831451416
      ],
      "min": [
        -0.9814386367797852,
        -1.0,
        -0.9930728673934937
      ],
      "type": "VEC3"
    },
    {
      "bufferView": 1,
      "byteOffset": 482848,
      "componentType": 5126,
      "count": 2866,
      "max": [
        1.0,
        1.0
      ],
      "min": [
        0.0,
        0.0
      ],
      "type": "VEC2"
    },
    {
      "bufferView": 0,
      "byteOffset": 751476,
      "componentType": 5125,
      "count": 7518,
      "type": "SCALAR"
    }
  ],
  "asset": {
    "extras": {
      "author": "Enkarra (https://sketchfab.com/Enkarra)",
      "license": "CC-BY-4.0 (http://creativecommons.org/licenses/by/4.0/)",
      "source": "https://sketchfab.com/3d-models/festival-blocking-c7c0ffb1943d44ae8fe91387870cd160",
      "title": "Festival blocking"
    },
    "generator": "Sketchfab-13.86.0",
    "version": "2.0"
  },
  "bufferViews": [
    {
      "buffer": 0,
      "byteLength": 781548,
      "name": "floatBufferViews",
      "target": 34963
    },
    {
      "buffer": 0,
      "byteLength": 505776,
      "byteOffset": 781548,
      "byteStride": 8,
      "name": "floatBufferViews",
      "target": 34962
    },
    {
      "buffer": 0,
      "byteLength": 1517328,
      "byteOffset": 1287324,
      "byteStride": 12,
      "name": "floatBufferViews",
      "target": 34962
    }
  ],
  "buffers": [
    {
      "byteLength": 2804652,
      "uri": "scene.bin"
    }
  ],
  "materials": [
    {
      "doubleSided": true,
      "name": "blinn1SG",
      "pbrMetallicRoughness": {
        "metallicFactor": 0.0,
        "roughnessFactor": 0.6
      }
    },
    {
      "doubleSided": true,
      "name": "initialShadingGroup",
      "pbrMetallicRoughness": {
        "metallicFactor": 0.0,
        "roughnessFactor": 0.6
      }
    }
  ],
  "meshes": [
    {
      "name": "Object_0",
      "primitives": [
        {
          "attributes": {
            "NORMAL": 1,
            "POSITION": 0,
            "TEXCOORD_0": 2
          },
          "indices": 3,
          "material": 0,
          "mode": 4
        }
      ]
    },
    {
      "name": "Object_1",
      "primitives": [
        {
          "attributes": {
            "NORMAL": 5,
            "POSITION": 4,
            "TEXCOORD_0": 6
          },
          "indices": 7,
          "material": 1,
          "mode": 4
        }
      ]
    },
    {
      "name": "Object_2",
      "primitives": [
        {
          "attributes": {
            "NORMAL": 9,
            "POSITION": 8,
            "TEXCOORD_0": 10
          },
          "indices": 11,
          "material": 1,
          "mode": 4
        }
      ]
    },
    {
      "name": "Object_3",
      "primitives": [
        {
          "attributes": {
            "NORMAL": 13,
            "POSITION": 12,
            "TEXCOORD_0": 14
          },
          "indices": 15,
          "material": 1,
          "mode": 4
        }
      ]
    },
    {
      "name": "Object_4",
      "primitives": [
        {
          "attributes": {
            "NORMAL": 17,
            "POSITION": 16,
            "TEXCOORD_0": 18
          },
          "indices": 19,
          "material": 1,
          "mode": 4
        }
      ]
    },
    {
      "name": "Object_5",
      "primitives": [
        {
          "attributes": {
            "NORMAL": 21,
            "POSITION": 20,
            "TEXCOORD_0": 22
          },
          "indices": 23,
          "material": 1,
          "mode": 4
        }
      ]
    },
    {
      "name": "Object_6",
      "primitives": [
        {
          "attributes": {
            "NORMAL": 25,
            "POSITION": 24,
            "TEXCOORD_0": 26
          },
          "indices": 27,
          "material": 1,
          "mode": 4
        }
      ]
    },
    {
      "name": "Object_7",
      "primitives": [
        {
          "attributes": {
            "NORMAL": 29,
            "POSITION": 28,
            "TEXCOORD_0": 30
          },
          "indices": 31,
          "material": 1,
          "mode": 4
        }
      ]
    },
    {
      "name": "Object_8",
      "primitives": [
        {
          "attributes": {
            "NORMAL": 33,
            "POSITION": 32,
            "TEXCOORD_0": 34
          },
          "indices": 35,
          "material": 1,
          "mode": 4
        }
      ]
    }
  ],
  "nodes": [
    {
      "children": [
        1
      ],
      "matrix": [
        1.0,
        0.0,
        0.0,
        0.0,
        0.0,
        2.220446049250313e-16,
        -1.0,
        0.0,
        0.0,
        1.0,
        2.220446049250313e-16,
        0.0,
        0.0,
        0.0,
        0.0,
        1.0
      ],
      "name": "Sketchfab_model"
    },
    {
      "children": [
        2,
        3,
        4,
        5,
        6,
        7,
        8,
        9,
        10
      ],
      "name": "BLOCKING_01.obj.cleaner.materialmerger.gles"
    },
    {
      "mesh": 0,
      "name": "Object_2"
    },
    {
      "mesh": 1,
      "name": "Object_3"
    },
    {
      "mesh": 2,
      "name": "Object_4"
    },
    {
      "mesh": 3,
      "name": "Object_5"
    },
    {
      "mesh": 4,
      "name": "Object_6"
    },
    {
      "mesh": 5,
      "name": "Object_7"
    },
    {
      "mesh": 6,
      "name": "Object_8"
    },
    {
      "mesh": 7,
      "name": "Object_9"
    },
    {
      "mesh": 8,
      "name": "Object_10"
    }
  ],
  "scene": 0,
  "scenes": [
    {
      "name": "Sketchfab_Scene",
      "nodes": [
        0
      ]
    }
  ]
}
